#tb 0: 1/25
0,          0,          0,        1,   304128, 0x0b6b13ed
0,          1,          1,        1,   304128, 0x406bcaa2
0,          2,          2,        1,   304128, 0xb0deeca3
0,          3,          3,        1,   304128, 0x5781016f
0,          4,          4,        1,   304128, 0xff6c6cb3
0,          5,          5,        1,   304128, 0x197151db
0,          6,          6,        1,   304128, 0xca1cf846
0,          7,          7,        1,   304128, 0x396e1767
0,          8,          8,        1,   304128, 0x0215005b
0,          9,          9,        1,   304128, 0xd9ae722a
0,         10,         10,        1,   304128, 0xd0f98ec0
0,         11,         11,        1,   304128, 0x1d0ef9b9
0,         12,         12,        1,   304128, 0xef005ad1
0,         13,         13,        1,   304128, 0x00564455
0,         14,         14,        1,   304128, 0xe3eb1bc9
